<svg id="visual" viewBox="0 0 900 600" width="900" height="600" xmlns="http://www.w3.org/2000/svg" xmlns:xlink="http://www.w3.org/1999/xlink" version="1.1"><path d="M0 181L13.7 174C27.3 167 54.7 153 82 141C109.3 129 136.7 119 163.8 132C191 145 218 181 245.2 180C272.3 179 299.7 141 327 137C354.3 133 381.7 163 409 164C436.3 165 463.7 137 491 122C518.3 107 545.7 105 573 123C600.3 141 627.7 179 654.8 180C682 181 709 145 736.2 126C763.3 107 790.7 105 818 102C845.3 99 872.7 95 886.3 93L900 91L900 0L886.3 0C872.7 0 845.3 0 818 0C790.7 0 763.3 0 736.2 0C709 0 682 0 654.8 0C627.7 0 600.3 0 573 0C545.7 0 518.3 0 491 0C463.7 0 436.3 0 409 0C381.7 0 354.3 0 327 0C299.7 0 272.3 0 245.2 0C218 0 191 0 163.8 0C136.7 0 109.3 0 82 0C54.7 0 27.3 0 13.7 0L0 0Z" fill="#a267ff"></path><path d="M0 349L13.7 363C27.3 377 54.7 405 82 399C109.3 393 136.7 353 163.8 332C191 311 218 309 245.2 315C272.3 321 299.7 335 327 349C354.3 363 381.7 377 409 381C436.3 385 463.7 379 491 376C518.3 373 545.7 373 573 377C600.3 381 627.7 389 654.8 379C682 369 709 341 736.2 327C763.3 313 790.7 313 818 314C845.3 315 872.7 317 886.3 318L900 319L900 89L886.3 91C872.7 93 845.3 97 818 100C790.7 103 763.3 105 736.2 124C709 143 682 179 654.8 178C627.7 177 600.3 139 573 121C545.7 103 518.3 105 491 120C463.7 135 436.3 163 409 162C381.7 161 354.3 131 327 135C299.7 139 272.3 177 245.2 178C218 179 191 143 163.8 130C136.7 117 109.3 127 82 139C54.7 151 27.3 165 13.7 172L0 179Z" fill="#8942ff"></path><path d="M0 475L13.7 479C27.3 483 54.7 491 82 483C109.3 475 136.7 451 163.8 437C191 423 218 419 245.2 417C272.3 415 299.7 415 327 428C354.3 441 381.7 467 409 470C436.3 473 463.7 453 491 446C518.3 439 545.7 445 573 448C600.3 451 627.7 451 654.8 448C682 445 709 439 736.2 434C763.3 429 790.7 425 818 428C845.3 431 872.7 441 886.3 446L900 451L900 317L886.3 316C872.7 315 845.3 313 818 312C790.7 311 763.3 311 736.2 325C709 339 682 367 654.8 377C627.7 387 600.3 379 573 375C545.7 371 518.3 371 491 374C463.7 377 436.3 383 409 379C381.7 375 354.3 361 327 347C299.7 333 272.3 319 245.2 313C218 307 191 309 163.8 330C136.7 351 109.3 391 82 397C54.7 403 27.3 375 13.7 361L0 347Z" fill="#6b00ff"></path><path d="M0 535L13.7 539C27.3 543 54.7 551 82 543C109.3 535 136.7 511 163.8 502C191 493 218 499 245.2 497C272.3 495 299.7 485 327 492C354.3 499 381.7 523 409 529C436.3 535 463.7 523 491 515C518.3 507 545.7 503 573 500C600.3 497 627.7 495 654.8 501C682 507 709 521 736.2 519C763.3 517 790.7 499 818 496C845.3 493 872.7 505 886.3 511L900 517L900 449L886.3 444C872.7 439 845.3 429 818 426C790.7 423 763.3 427 736.2 432C709 437 682 443 654.8 446C627.7 449 600.3 449 573 446C545.7 443 518.3 437 491 444C463.7 451 436.3 471 409 468C381.7 465 354.3 439 327 426C299.7 413 272.3 413 245.2 415C218 417 191 421 163.8 435C136.7 449 109.3 473 82 481C54.7 489 27.3 481 13.7 477L0 473Z" fill="#5d00dc"></path><path d="M0 601L13.7 601C27.3 601 54.7 601 82 601C109.3 601 136.7 601 163.8 601C191 601 218 601 245.2 601C272.3 601 299.7 601 327 601C354.3 601 381.7 601 409 601C436.3 601 463.7 601 491 601C518.3 601 545.7 601 573 601C600.3 601 627.7 601 654.8 601C682 601 709 601 736.2 601C763.3 601 790.7 601 818 601C845.3 601 872.7 601 886.3 601L900 601L900 515L886.3 509C872.7 503 845.3 491 818 494C790.7 497 763.3 515 736.2 517C709 519 682 505 654.8 499C627.7 493 600.3 495 573 498C545.7 501 518.3 505 491 513C463.7 521 436.3 533 409 527C381.7 521 354.3 497 327 490C299.7 483 272.3 493 245.2 495C218 497 191 491 163.8 500C136.7 509 109.3 533 82 541C54.7 549 27.3 541 13.7 537L0 533Z" fill="#4f01ba"></path></svg>